<svg id="visual" viewBox="0 0 1540 720" width="1540" height="720" xmlns="http://www.w3.org/2000/svg" xmlns:xlink="http://www.w3.org/1999/xlink" version="1.1"><rect x="0" y="0" width="1540" height="720" fill="#062d4c"></rect><path d="M0 374L23.3 379.3C46.7 384.7 93.3 395.3 140 403.8C186.7 412.3 233.3 418.7 280 423.5C326.7 428.3 373.3 431.7 420 424.7C466.7 417.7 513.3 400.3 560 391.5C606.7 382.7 653.3 382.3 700 391.7C746.7 401 793.3 420 840 428C886.7 436 933.3 433 980 427.3C1026.7 421.7 1073.3 413.3 1120 401.8C1166.7 390.3 1213.3 375.7 1260 379.5C1306.7 383.3 1353.3 405.7 1400 415.5C1446.7 425.3 1493.3 422.7 1516.7 421.3L1540 420L1540 721L1516.7 721C1493.3 721 1446.7 721 1400 721C1353.3 721 1306.7 721 1260 721C1213.3 721 1166.7 721 1120 721C1073.3 721 1026.7 721 980 721C933.3 721 886.7 721 840 721C793.3 721 746.7 721 700 721C653.3 721 606.7 721 560 721C513.3 721 466.7 721 420 721C373.3 721 326.7 721 280 721C233.3 721 186.7 721 140 721C93.3 721 46.7 721 23.3 721L0 721Z" fill="#69a0fa"></path><path d="M0 478L23.3 471.2C46.7 464.3 93.3 450.7 140 456.5C186.7 462.3 233.3 487.7 280 497.5C326.7 507.3 373.3 501.7 420 493.7C466.7 485.7 513.3 475.3 560 467.2C606.7 459 653.3 453 700 450.3C746.7 447.7 793.3 448.3 840 449.8C886.7 451.3 933.3 453.7 980 456.3C1026.7 459 1073.3 462 1120 466.5C1166.7 471 1213.3 477 1260 478.7C1306.7 480.3 1353.3 477.7 1400 473.8C1446.7 470 1493.3 465 1516.7 462.5L1540 460L1540 721L1516.7 721C1493.3 721 1446.7 721 1400 721C1353.3 721 1306.7 721 1260 721C1213.3 721 1166.7 721 1120 721C1073.3 721 1026.7 721 980 721C933.3 721 886.7 721 840 721C793.3 721 746.7 721 700 721C653.3 721 606.7 721 560 721C513.3 721 466.7 721 420 721C373.3 721 326.7 721 280 721C233.3 721 186.7 721 140 721C93.3 721 46.7 721 23.3 721L0 721Z" fill="#427bef"></path><path d="M0 562L23.3 554.7C46.7 547.3 93.3 532.7 140 526.8C186.7 521 233.3 524 280 525.5C326.7 527 373.3 527 420 537.3C466.7 547.7 513.3 568.3 560 576.7C606.7 585 653.3 581 700 579.8C746.7 578.7 793.3 580.3 840 579.7C886.7 579 933.3 576 980 577C1026.7 578 1073.3 583 1120 581C1166.7 579 1213.3 570 1260 568.2C1306.7 566.3 1353.3 571.7 1400 571.8C1446.7 572 1493.3 567 1516.7 564.5L1540 562L1540 721L1516.7 721C1493.3 721 1446.7 721 1400 721C1353.3 721 1306.7 721 1260 721C1213.3 721 1166.7 721 1120 721C1073.3 721 1026.7 721 980 721C933.3 721 886.7 721 840 721C793.3 721 746.7 721 700 721C653.3 721 606.7 721 560 721C513.3 721 466.7 721 420 721C373.3 721 326.7 721 280 721C233.3 721 186.7 721 140 721C93.3 721 46.7 721 23.3 721L0 721Z" fill="#2754de"></path><path d="M0 601L23.3 602.5C46.7 604 93.3 607 140 610.7C186.7 614.3 233.3 618.7 280 623.5C326.7 628.3 373.3 633.7 420 639.7C466.7 645.7 513.3 652.3 560 656.3C606.7 660.3 653.3 661.7 700 660.2C746.7 658.7 793.3 654.3 840 647.5C886.7 640.7 933.3 631.3 980 624.5C1026.7 617.7 1073.3 613.3 1120 620.3C1166.7 627.3 1213.3 645.7 1260 651.2C1306.7 656.7 1353.3 649.3 1400 647.5C1446.7 645.7 1493.3 649.3 1516.7 651.2L1540 653L1540 721L1516.7 721C1493.3 721 1446.7 721 1400 721C1353.3 721 1306.7 721 1260 721C1213.3 721 1166.7 721 1120 721C1073.3 721 1026.7 721 980 721C933.3 721 886.7 721 840 721C793.3 721 746.7 721 700 721C653.3 721 606.7 721 560 721C513.3 721 466.7 721 420 721C373.3 721 326.7 721 280 721C233.3 721 186.7 721 140 721C93.3 721 46.7 721 23.3 721L0 721Z" fill="#2624c7"></path></svg>