<svg id="visual" viewBox="0 0 540 960" width="540" height="960" xmlns="http://www.w3.org/2000/svg" xmlns:xlink="http://www.w3.org/1999/xlink" version="1.1"><rect x="0" y="0" width="540" height="960" fill="#0066FF"></rect><defs><linearGradient id="grad1_0" x1="0%" y1="0%" x2="100%" y2="100%"><stop offset="30%" stop-color="#4facf7" stop-opacity="1"></stop><stop offset="70%" stop-color="#4facf7" stop-opacity="1"></stop></linearGradient></defs><defs><linearGradient id="grad1_1" x1="0%" y1="0%" x2="100%" y2="100%"><stop offset="30%" stop-color="#4facf7" stop-opacity="1"></stop><stop offset="70%" stop-color="#0066ff" stop-opacity="1"></stop></linearGradient></defs><defs><linearGradient id="grad2_0" x1="0%" y1="0%" x2="100%" y2="100%"><stop offset="30%" stop-color="#4facf7" stop-opacity="1"></stop><stop offset="70%" stop-color="#4facf7" stop-opacity="1"></stop></linearGradient></defs><defs><linearGradient id="grad2_1" x1="0%" y1="0%" x2="100%" y2="100%"><stop offset="30%" stop-color="#0066ff" stop-opacity="1"></stop><stop offset="70%" stop-color="#4facf7" stop-opacity="1"></stop></linearGradient></defs><g transform="translate(540, 0)"><path d="M0 459C-48.7 426 -97.3 393 -155.8 376C-214.2 359 -282.4 357.9 -324.6 324.6C-366.7 291.2 -382.9 225.6 -401 166.1C-419 106.6 -439 53.3 -459 0L0 0Z" fill="#008cff"></path><path d="M0 229.5C-24.3 213 -48.7 196.5 -77.9 188C-107.1 179.5 -141.2 179 -162.3 162.3C-183.4 145.6 -191.4 112.8 -200.5 83C-209.5 53.3 -219.5 26.7 -229.5 0L0 0Z" fill="#4facf7"></path></g><g transform="translate(0, 960)"><path d="M0 -459C56.4 -446.9 112.8 -434.7 172.2 -415.7C231.6 -396.8 294.1 -371 324.6 -324.6C355 -278.1 353.4 -211 370.5 -153.5C387.5 -95.9 423.3 -48 459 0L0 0Z" fill="#008cff"></path><path d="M0 -229.5C28.2 -223.4 56.4 -217.4 86.1 -207.9C115.8 -198.4 147.1 -185.5 162.3 -162.3C177.5 -139.1 176.7 -105.5 185.2 -76.7C193.8 -48 211.6 -24 229.5 0L0 0Z" fill="#4facf7"></path></g></svg>