<svg id="visual" viewBox="0 0 675 900" width="675" height="900" xmlns="http://www.w3.org/2000/svg" xmlns:xlink="http://www.w3.org/1999/xlink" version="1.1"><rect x="0" y="0" width="675" height="900" fill="#001220"></rect><path d="M0 642L28.2 636.3C56.3 630.7 112.7 619.3 169 600.5C225.3 581.7 281.7 555.3 337.8 550.5C394 545.7 450 562.3 506.2 566.8C562.3 571.3 618.7 563.7 646.8 559.8L675 556L675 901L646.8 901C618.7 901 562.3 901 506.2 901C450 901 394 901 337.8 901C281.7 901 225.3 901 169 901C112.7 901 56.3 901 28.2 901L0 901Z" fill="#89c3eb"></path><path d="M0 654L28.2 660.5C56.3 667 112.7 680 169 669.7C225.3 659.3 281.7 625.7 337.8 612.5C394 599.3 450 606.7 506.2 614.3C562.3 622 618.7 630 646.8 634L675 638L675 901L646.8 901C618.7 901 562.3 901 506.2 901C450 901 394 901 337.8 901C281.7 901 225.3 901 169 901C112.7 901 56.3 901 28.2 901L0 901Z" fill="#5898d1"></path><path d="M0 652L28.2 667.5C56.3 683 112.7 714 169 714.8C225.3 715.7 281.7 686.3 337.8 688.8C394 691.3 450 725.7 506.2 727.5C562.3 729.3 618.7 698.7 646.8 683.3L675 668L675 901L646.8 901C618.7 901 562.3 901 506.2 901C450 901 394 901 337.8 901C281.7 901 225.3 901 169 901C112.7 901 56.3 901 28.2 901L0 901Z" fill="#2e6eb5"></path><path d="M0 808L28.2 812C56.3 816 112.7 824 169 823.3C225.3 822.7 281.7 813.3 337.8 798.7C394 784 450 764 506.2 770.3C562.3 776.7 618.7 809.3 646.8 825.7L675 842L675 901L646.8 901C618.7 901 562.3 901 506.2 901C450 901 394 901 337.8 901C281.7 901 225.3 901 169 901C112.7 901 56.3 901 28.2 901L0 901Z" fill="#0d4395"></path></svg>