<svg id="visual" viewBox="0 0 1920 1080" width="1920" height="1080" xmlns="http://www.w3.org/2000/svg" xmlns:xlink="http://www.w3.org/1999/xlink" version="1.1"><path d="M0 271L175 109L349 260L524 131L698 174L873 174L1047 87L1222 109L1396 282L1571 228L1745 249L1920 174L1920 0L1745 0L1571 0L1396 0L1222 0L1047 0L873 0L698 0L524 0L349 0L175 0L0 0Z" fill="#75e8ee"></path><path d="M0 573L175 401L349 606L524 368L698 530L873 422L1047 530L1222 617L1396 530L1571 530L1745 487L1920 530L1920 172L1745 247L1571 226L1396 280L1222 107L1047 85L873 172L698 172L524 129L349 258L175 107L0 269Z" fill="#11cdfa"></path><path d="M0 768L175 606L349 757L524 519L698 606L873 638L1047 703L1222 833L1396 725L1571 606L1745 714L1920 617L1920 528L1745 485L1571 528L1396 528L1222 615L1047 528L873 420L698 528L524 366L349 604L175 399L0 571Z" fill="#00acff"></path><path d="M0 973L175 984L349 984L524 941L698 995L873 1005L1047 897L1222 1005L1396 984L1571 941L1745 962L1920 897L1920 615L1745 712L1571 604L1396 723L1222 831L1047 701L873 636L698 604L524 517L349 755L175 604L0 766Z" fill="#0082ff"></path><path d="M0 1081L175 1081L349 1081L524 1081L698 1081L873 1081L1047 1081L1222 1081L1396 1081L1571 1081L1745 1081L1920 1081L1920 895L1745 960L1571 939L1396 982L1222 1003L1047 895L873 1003L698 993L524 939L349 982L175 982L0 971Z" fill="#3d45fc"></path></svg>